<svg xmlns="http://www.w3.org/2000/svg" width="480" height="320" viewBox="0 0 480 320">
  <!-- Concept 01: Chromatic Deck — recommended. Solid geometry and large type are chosen for RGB565 rendering. -->
  <rect width="480" height="320" fill="#071013"/>
  <rect x="0" y="0" width="480" height="42" fill="#0D1A1F"/>
  <text x="16" y="16" fill="#6F8289" font-family="Avenir Next Condensed, sans-serif" font-size="10" font-weight="700" letter-spacing="1.6">BANK 07</text>
  <text x="16" y="34" fill="#F2FAFB" font-family="Avenir Next Condensed, sans-serif" font-size="19" font-weight="700">MIDNIGHT SET</text>
  <text x="370" y="27" fill="#9FB1B7" font-family="Avenir Next, sans-serif" font-size="11" font-weight="600">PAGE 2 / 4</text>
  <circle cx="456" cy="21" r="5" fill="#4DF7A4"/>

  <g font-family="DIN Condensed, Avenir Next Condensed, sans-serif">
    <rect x="8" y="50" width="228" height="105" rx="10" fill="#102229"/>
    <rect x="8" y="50" width="6" height="105" rx="3" fill="#2BE5D2"/>
    <text x="26" y="82" fill="#2BE5D2" font-size="38" font-weight="700">A</text>
    <text x="76" y="94" fill="#F2FAFB" font-size="30" font-weight="700">CLEAN</text>
    <text x="76" y="122" fill="#6F8289" font-size="14" font-weight="700" letter-spacing="1.5">POSITION 1</text>
    <rect x="76" y="135" width="88" height="3" fill="#2BE5D2"/>

    <rect x="244" y="50" width="228" height="105" rx="10" fill="#F25F5C"/>
    <text x="262" y="83" fill="#5B1117" font-size="38" font-weight="700">B</text>
    <text x="312" y="94" fill="#17090C" font-size="30" font-weight="700">DRIVE</text>
    <text x="312" y="122" fill="#5B1117" font-size="14" font-weight="700" letter-spacing="1.5">POSITION 2 · ON</text>
    <rect x="312" y="135" width="128" height="3" fill="#17090C" opacity=".75"/>

    <rect x="8" y="163" width="228" height="105" rx="10" fill="#102229"/>
    <rect x="8" y="163" width="6" height="105" rx="3" fill="#C99BFF"/>
    <text x="26" y="195" fill="#C99BFF" font-size="38" font-weight="700">C</text>
    <text x="76" y="207" fill="#F2FAFB" font-size="30" font-weight="700">CHORUS</text>
    <text x="76" y="235" fill="#6F8289" font-size="14" font-weight="700" letter-spacing="1.5">POSITION 1</text>
    <rect x="76" y="248" width="88" height="3" fill="#C99BFF"/>

    <rect x="244" y="163" width="228" height="105" rx="10" fill="#102229"/>
    <rect x="244" y="163" width="6" height="105" rx="3" fill="#FFCB47"/>
    <text x="262" y="195" fill="#FFCB47" font-size="38" font-weight="700">D</text>
    <text x="312" y="207" fill="#F2FAFB" font-size="30" font-weight="700">DELAY</text>
    <text x="312" y="235" fill="#6F8289" font-size="14" font-weight="700" letter-spacing="1.5">POSITION 1</text>
    <rect x="312" y="248" width="88" height="3" fill="#FFCB47"/>
  </g>

  <rect x="0" y="276" width="480" height="44" fill="#0D1A1F"/>
  <text x="16" y="303" fill="#F2FAFB" font-family="Avenir Next Condensed, sans-serif" font-size="14" font-weight="700">EXP · VOLUME</text>
  <rect x="132" y="292" width="280" height="6" rx="3" fill="#26383E"/>
  <rect x="132" y="292" width="212" height="6" rx="3" fill="#2BE5D2"/>
  <text x="446" y="304" text-anchor="end" fill="#2BE5D2" font-family="DIN Condensed, sans-serif" font-size="22" font-weight="700">96</text>
</svg>
